<svg width="45" height="45" viewBox="0 0 45 45" fill="none" xmlns="http://www.w3.org/2000/svg">
<path d="M22.5 5.34375C25.7625 5.34375 28.4063 7.9875 28.4063 11.25C28.4063 14.5125 25.7625 17.1563 22.5 17.1563C19.2375 17.1563 16.5937 14.5125 16.5937 11.25C16.5937 7.9875 19.2375 5.34375 22.5 5.34375ZM22.5 30.6562C30.8531 30.6562 39.6562 34.7625 39.6562 36.5625V39.6562H5.34375V36.5625C5.34375 34.7625 14.1469 30.6562 22.5 30.6562ZM22.5 0C16.2844 0 11.25 5.03437 11.25 11.25C11.25 17.4656 16.2844 22.5 22.5 22.5C28.7156 22.5 33.75 17.4656 33.75 11.25C33.75 5.03437 28.7156 0 22.5 0ZM22.5 25.3125C14.9906 25.3125 0 29.0812 0 36.5625V45H45V36.5625C45 29.0812 30.0094 25.3125 22.5 25.3125Z" fill="#DFBAB1"/>
</svg>
